<svg width="22" height="21" viewBox="0 0 22 21" fill="none" xmlns="http://www.w3.org/2000/svg">
<rect x="0.833328" y="0.380951" width="20.2381" height="20.2381" rx="5.95238" fill="#0ACF83"/>
<mask id="mask0_908_544" style="mask-type:alpha" maskUnits="userSpaceOnUse" x="0" y="0" width="22" height="21">
<rect x="0.833328" y="0.380981" width="20.2381" height="20.2381" rx="5.95238" fill="#0ACF83"/>
</mask>
<g mask="url(#mask0_908_544)">
<path d="M13.9023 10.0182C14.2974 11.4929 13.4206 13.0092 11.9438 13.4049C10.467 13.8006 8.94951 12.9259 8.55436 11.4511C8.15921 9.97642 9.03605 8.46014 10.5128 8.06444C11.9896 7.66873 13.5071 8.54345 13.9023 10.0182Z" fill="white"/>
<path fill-rule="evenodd" clip-rule="evenodd" d="M0.602725 1.89791C0.227602 2.27258 0.22739 2.87983 0.602251 3.25424L5.30891 7.9552C4.67253 9.30392 4.49217 10.8758 4.90813 12.4282C5.84213 15.9139 9.42895 17.9814 12.9195 17.0461C16.4101 16.1108 18.4826 12.5269 17.5486 9.04117C16.6146 5.55546 13.0278 3.48794 9.53724 4.42324C9.0117 4.56406 8.51831 4.76491 8.06249 5.01643L3.4502 0.409723C3.07534 0.0353154 2.46736 0.0355271 2.09224 0.410197L0.602725 1.89791ZM12.2041 14.3759C14.2178 13.8363 15.4135 11.7687 14.8747 9.75771C14.3359 7.74672 12.2665 6.55392 10.2527 7.09352C8.23894 7.63311 7.04325 9.70077 7.5821 11.7118C8.12094 13.7227 10.1903 14.9155 12.2041 14.3759Z" fill="white"/>
</g>
</svg>
